<?xml version="1.0" encoding="UTF-8"?>
<svg id="Layer_1" data-name="Layer 1" xmlns="http://www.w3.org/2000/svg" viewBox="0 0 430.09 479.59">
  <defs>
    <style>
      .cls-1 {
        fill: #1fd3ae;
      }

      .cls-2 {
        fill: #444b54;
      }
    </style>
  </defs>
  <path class="cls-2" d="M246.37,268.73c8.95-.3,17.58,3.03,24.2,8.95l83.12,83.6c4.97,5.8,7.95,12.53,8.86,20.16-.89,16.74,1.12,34.58,0,51.19-1.65,24.65-22.46,45.15-46.97,46.97H47.5c-25.83-2.22-45.44-23.28-46.97-48.94-.72-12.13-1.39-40.22,2.89-50.76,3.7-9.14,25.01-31.16,33.57-36.27,32.06-19.17,52.97,20.75,73.77,37.8,3.65,2.42,8.27,2.25,11.54-.69l104.49-104.53c5.27-4.47,12.66-7.24,19.58-7.48Z"/>
  <path class="cls-1" d="M345.71.2c64.4-4.42,106.93,66.95,71.62,121.29-30.3,46.63-98.37,48.18-130.45,2.66-35.31-50.11-2.05-119.77,58.83-123.95ZM363.02,66.94v-17.95c0-5.34-7.06-9.7-12.06-9.63-4.8.07-11.55,4.52-11.55,9.63v17.95h-17.95c-5.34,0-9.7,7.06-9.63,12.06s4.52,11.55,9.63,11.55h17.95v17.95c0,5.34,7.06,9.7,12.06,9.63s11.55-4.52,11.55-9.63v-17.95h17.95c.19,0,3.08-1.16,3.53-1.39,8.2-4.16,8.08-17.09-.31-21.02-.55-.26-2.89-1.2-3.22-1.2h-17.95Z"/>
  <path class="cls-2" d="M47.18.2L226.54.06c14.13,1.72,14.1,21.89,0,23.6H49.5c-13.36,1.55-23.52,11.92-24.86,25.32v263.14c-1.72,14.26-22.35,14.18-23.61-.47l.02-264.12C2.86,22.81,22.47,2.58,47.18.2Z"/>
  <path class="cls-2" d="M120.94,152.16c30.5-3.43,49.82,30.64,30.1,54.2-18.14,21.67-53.55,11.54-57.95-16.28-2.77-17.5,9.88-35.89,27.86-37.91Z"/>
  <path class="cls-2" d="M349.13,208.71c7.31-1.03,13.34,3.53,13.91,10.92l-.07,85.05c-2.2,13.9-22.33,13.51-23.57-.91l.02-84.6c.52-5.25,4.42-9.7,9.71-10.45Z"/>
</svg>