<?xml version="1.0" encoding="UTF-8"?>
<svg id="Layer_1" data-name="Layer 1" xmlns="http://www.w3.org/2000/svg" viewBox="0 0 375.8 478.41">
  <defs>
    <style>
      .cls-1 {
        fill: #1fd3ae;
      }

      .cls-2 {
        fill: #444b54;
      }
    </style>
  </defs>
  <path class="cls-2" d="M143.44,0c56.17,3.66,99.66,47.39,102.31,103.95,1.1,23.46-.44,47.61-.44,71.03-.89,3.15-3.14,4.6-6.31,4.9-19.03,1.79-41.26-1.94-60.23.04-6.3.66-10.65,4.53-12.33,10.57-.68,75.69.14,151.16-.13,226.96.99,6.86,5.99,11.32,12.85,11.91h122.9c8.56-.21,14.44-7.63,13.56-15.93-.57-.83-3.87-.31-5.12-.49-18.57-2.67-29.39-23.2-19.81-39.8,1.29-2.24,3.07-4.01,4.55-6.1-11.04-10.48-10.78-29.28,0-39.84-1.11-1.85-2.67-2.99-3.9-4.88-7.01-10.83-4.87-25.5,4.39-34.3-18.36-16.95-5.05-46.7,19.33-46.08l.7-.7.06-47.11c-.31-7.57-4.85-13.2-12.5-14.12-3.2-.39-6.61.22-9.68-.13-6.93-.79-8.41-10.08-2.43-13.17,2.49-1.29,10.52-1.06,13.58-.78,15.6,1.43,26.11,15.49,25.06,30.77,27.36-5.18,47.68,25.22,30.83,48.11,16.86,7.3,20.15,31.04,6.58,43.29-.13.73,2.36,2.67,2.96,3.48,8.08,10.92,7.28,25.75-2.5,35.3,1.29,2.07,3.01,3.81,4.25,5.93,7.82,13.42,3.48,32.41-11.29,38.63,7.49,12.23,5.23,27.23-6.11,36.16-7.41,5.84-15.7,5.74-24.72,5.41.81,12.76-6.87,25.33-19.25,29.1-1.03.31-4.48,1.27-5.27,1.27h-30.6v29.67c0,2.75-4.65,5.48-7.23,5.39s-6.79-3.33-6.79-5.86v-29.2h-84.33c-12.31,0-24.53-15-24.53-26.86v-114.69c-3.52.14-7.02,1.58-10.52,1.86-18.51,1.47-37.88-8.46-46.56-24.9-.82-1.55-1.93-6.21-3.43-6.42-1.07-.15-6.71.83-8.26,1.09-29.3,4.91-55.51,26.98-64.86,55.21-6.82,20.59-3.37,42.43-4.19,63.79h33.64v-23.13c0-.85,1.69-3.01,2.45-3.62,5.37-4.26,11.78.01,11.58,6.4l-.06,99.96c-1.03,5.64-7.24,8.43-11.8,4.41-.63-.56-2.18-2.77-2.18-3.43v-66.11H14.03v65.64c0,.19-.95,2.18-1.19,2.55-3.4,5.23-11.3,3.76-12.8-2.11l-.05-125.19c2.31-28.49,17.36-55.18,40.69-71.49-5.45-9.37-9.22-19.44-10.33-30.32V100.19C33.55,46.17,78.81,3.18,132.23,0h11.21ZM201.37,165.85v-32c-19.98-7.22-36.63-21.53-45.4-41.03-1.42-3.16-2.27-6.59-3.89-9.65-20.55,24.08-47.52,43.46-78.67,50.96.64,14.89-1.77,30.94,1.86,45.47,8.29,33.17,43.03,54.94,76.52,46.46.26-7.84-.12-15.71.04-23.55.15-7.01-.21-14.02,2.74-20.62,3.39-7.56,13.73-16.04,22.27-16.04h24.53ZM329.85,242h11.91c.74,0,5.07-3.18,5.86-3.96,13.27-13.03-1.29-32.57-17.77-26.88v30.83ZM104.67,234.99v30.6c0,.57,1.55,4.22,1.94,5.07,7.45,16.35,29.49,23.66,45.52,15.72-.32-3.8-.31-7.64-.29-11.47.02-3.25,0-6.52,0-9.77-.02-8.18.05-16.37.02-24.54-16.01,3.2-32.29.64-47.18-5.61ZM311.51,256.13c-14.68,3.59-13.28,23.91,2.21,25.13,11.56-.96,25.09,1.25,36.41-.07,15.51-1.81,14.9-23.87.07-25.2-12.25-1.1-26.25.77-38.68.13ZM311.98,295.38c-14.85,2.78-14.01,23.8,1.26,25.12,11.99,1.04,25.58-.71,37.74-.14,14.75-2.86,13.91-23.81-1.26-25.12-11.99-1.04-25.58.71-37.74.14ZM311.98,334.62c-13.75,2.74-14.47,21.13-.85,24.9,12.29-.78,27.93,1.81,39.85.08,14.33-2.07,14.4-23.85-1.73-25.12-11.93-.94-25.2.64-37.27.14ZM312.46,373.87c-15.02,1.89-14.51,23.54-.13,25.1,5.9.64,22.21.71,27.99-.04,14.01-1.83,14.68-23.91-1.81-25.2-6.48-.51-19.74-.64-26.05.15Z"/>
  <path class="cls-1" d="M200.31,208c4.28-.87,8.02,1.89,8.55,6.19.55,4.52.64,20.88-.04,25.21-1.23,7.84-13.07,8.13-13.99-.44-.52-4.89-.69-20.58.03-25.2.41-2.63,2.84-5.23,5.45-5.76Z"/>
  <path class="cls-1" d="M273.16,178.77c-3.62,3.44-10.66,2.71-12.87-1.99-3.87-8.23,5.64-15.57,12.32-9.98,3.54,2.97,3.94,8.75.55,11.97Z"/>
</svg>